<?xml version="1.0" encoding="UTF-8"?><svg id="Layer_1" xmlns="http://www.w3.org/2000/svg" viewBox="0 0 250.08 310.89"><defs><style>.cls-1{fill:none;stroke:#2b1e1a;stroke-linecap:round;stroke-width:4px;}.cls-2{fill:rgba(223,219,208,.7);}.cls-2,.cls-3,.cls-4,.cls-5{stroke-width:0px;}.cls-3{fill-rule:evenodd;}.cls-3,.cls-5{fill:#2b1e1a;}.cls-4{fill:#f6501a;}</style></defs><path class="cls-4" d="M110.38,6.19c28.63-2.86,50.37,1.88,76.43,13.71,11.94,5.43,22.75,18.22,24.57,30.61.8,5.5,5.62,14.83,6.55,20.36,1.41,8.38,6.37,12.56,6.37,20.46,2.62,5.7-2.13,15.06-7.93,13.8-1.91-.42-9.86-.3-11.55-1.28-5.02-2.86-13.6-6.91-18.79-9.47-46.6-22.98-84.62-14.79-130.07,9.79-4.37,2.74-12.78,4.18-17.07,7.05-3.19,2.12-13.49,2.3-17.21.9-4.47-1.69-4.53-7.78-2.55-12.74,3.34-8.38,6.89-12.99,7.22-21.24.08-2.03,5.67-6.43,5.44-13.11-.23-6.37,4.54-13.48,6.64-19.49,3.21-9.21,9.66-15.08,17.69-19.64,19.44-11.05,31.95-17.48,54.27-19.71Z"/><path class="cls-2" d="M212.03,127.9c-.91,6-9.87,6.47-10.18.53-.91-17.35-15.24-18.3-26.88-19.07-4.66-.31-8.89-.59-11.65-1.88-35.76-14.13-50.35-12.94-79.87,4.33-6.15,3.82-11.82,4.09-17.09,4.35-3.08.15-6.03.29-8.86,1.13-7.37,2.18-9.36,7.58-12.02,14.8-.35.94-.7,1.91-1.09,2.91-2.16,5.64-8.99,5.07-11.88.62-2.89-4.44-1.05-11.85,2.57-15.87,4.44-4.93,12.08-9.57,19.35-13.99,1.94-1.18,3.86-2.34,5.68-3.49,34.59-21.8,74.31-34.95,133.44-2.31,11.01,6.08,20.69,13.38,18.48,27.96Z"/><path class="cls-2" d="M217.7,138.66c-.18-3.4,1.51-10.02,4-12.97,3.03-3.59,7.17-4.21,12.21-2.34,4.57,1.69,6.57,11.65,6.81,16.23.55,11.25-.3,42.98-16.55,41.28-4.37-.46-4.3-9.5-4.27-14.44,0-.97.01-1.79-.02-2.35-.14-2.68-.65-8.08-1.14-13.33-.47-4.97-.92-9.81-1.04-12.08Z"/><path class="cls-3" d="M212.12,40.27c-7.58-14.52-18.23-22.35-33.33-28.45C152.54,1.2,138.72-1.59,113.07.8c-25.31,2.36-39.62,7.85-54.49,16.67-8.34,4.94-17.42,16.39-20.49,21.72-3.29,5.7-8.83,15.91-11.53,23.57-2.59,7.37-6.54,16.35-6.54,16.35l-5.85,14.8c-2.54,7.32-3.11,17.96,2.01,22.57,1.2,1.08,4.84,3.15,4.49,4.44-.23.82-1.42.38-1.68.37-6.4-.37-11.25,2.19-14.96,7.64-6.67,9.8-3.56,28.43-1.32,38.87,2.81,13.04,5.03,19.73,10.84,28.36,2.49,3.7,9.41,9.02,17.41,7.6,5.11-.91,6.5,12.67,7.36,18.75.64,4.53,3.99,19.36,8.34,29.34,4.9,11.23,8.9,15.7,17.57,25.51,5.03,5.7,16.1,15.94,18.81,17.67,20.33,12.96,36.81,17.16,52.61,15.53,33.85-3.48,57.74-19.62,75.41-54.57,1.82-3.61,6.07-19.52,6.97-25.69,1.88-12.93,5.07-24.29,5.54-37.47.03-.88.77-1.14,2.02-1.33,24.01-3.47,25.86-37.49,23.85-55.35-.82-6.43-1.66-14.41-6.26-18.89-5.31-4.6-11.2-5.72-17.8-4.52-1.56.28-2.76-1.2-2.42-2.85.47-2.27,4.55-2.94,6.14-4.58,3.36-3.47,4.25-10.38,2.33-14.99-2.46-5.75-7.44-17.5-9.47-23.77-3.52-10.89-5.56-18-9.88-26.28ZM113.71,13.1c24.6-1.29,35.25-1.03,62.17,11.21,11.94,5.43,21.74,15.44,24.94,21.67,3.68,7.18,6.73,17.4,9.94,25.32,0,0,5.77,12.69,7.96,20.81,1.51,5.59-3.4,9.34-7.78,9.57-2.41.13-7.28-1.41-11.52-3.31-5.27-2.37-11.4-6.78-16.59-9.34-46.6-22.98-86.43-16.82-130.16,10.58-4.37,2.74-8.7,5.54-12.99,8.41-3.19,2.12-7.72,4.55-11.44,3.15-3.72-1.4-5.32-6.68-3.87-11.28,2.45-7.79,6.27-16.07,6.27-16.07,0,0,5.61-13.28,6.89-16.95,1.74-5.03,5.59-12.81,9.08-19.19,4.68-8.55,13.6-16.43,18.94-20.13,8.74-6.07,26.53-13.3,48.16-14.43ZM38.03,133.26l-.59-8.97c-.03-.39.27-.77.65-.84,5.33-.95,6.2-2.76,11-6.33,46.93-34.93,93.93-41.25,143.14-9.88,2.64,1.68,8.75,4.65,11.36,5.78.48.21,3.61,1.51,3.62,4.06.09,22.3,2.89,42.3,4.06,64.56.82,15.58-2.07,29.25-3.55,42.61-1.76,16.03-10.95,41.1-22.38,51.79-13.48,12.62-26.37,20.46-50.31,22.2-41.95,3.05-65.59-25.91-78.55-54.16-8.64-18.83-7.61-31.5-12.02-50.84-4.67-20.46-6.87-37.07-6.43-59.99ZM24.02,176.46c1.03,1.17,2.29.83,1.65-.94-1.71-4.73-4.75-10.98-2.52-15.61.51-1.06,1.92-1.41,2.97-.57,1.09.86,1.72,2,1.8,3.43.46,8.78,3.11,12.84,2.82,20.15-.16,3.92-.02,7.66-6.45,6.72-5.37-.78-7.03-8.16-8.77-13.15-3.5-10.02-4.46-17.24-5.3-29.08-.38-5.39-.6-11.45,5.23-13.88,3.47-1.45,6.32-.96,9.42,1.63,3.63,3.04,2.68,12.13,2.99,16.16.08,1.04-.74,1.9-1.28.77-1-2.12-2.99-5.08-4.96-5.27-3.48-.35-4.29,5.03-4.27,7.88.07,8.58,1.05,15.46,6.67,21.77ZM226.36,165.86c-.46,1.33,1.38,2.05,1.87.5,2.34-7.47,5.06-14,3.25-21.77-1.5-6.44-6.18-11.14-10.21-2.21-.34.77-.55.73-.62-.11-.28-3.39.19-10.76,1.69-13.37,1.91-3.35,3.63-4.49,8.58-4.32,4.87.17,7.36,8.83,7.6,13.41.55,11.25.85,40.4-13.42,41.15-1.9.1-2.3-1.87-2.49-2.91-.83-4.77-.43-7.39-.8-12.12-.33-4.14-1.31-7.92-1.23-11.44.04-2.12,1.46-3.68,3.98-3.81,5.33-.28,2.54,14.88,1.8,17ZM171.7,53.66c1.64.72,3.11,1.48,4.43,2.29,1.23.76,1.14.99-.28.68-14.11-3.12-28.73-5.22-43.87-6.28-4.1-.29-3.97-.61-8.08-.53-.27,0-1.62-.5-.91-.7,17.04-5.2,32.58-2.47,48.72,4.55ZM176.85,69.77c-37.25-19.66-71.2-15.84-106.33,3.87-2.02,1.13-7.02,3.77-8.69,4.71-.83.47.11,1.1.89.8,7.82-2.95,13.82-5.49,20.45-7.45,24.39-7.23,36.53-9.19,59.19-6.93,12.95,1.29,26.5,5.52,39.18,9.01,2.16.59,2.12-.11.36-1.29-.79-.53-3.87-2.09-5.06-2.71Z"/><path class="cls-5" d="M149.98,187.19c-.56,4.13-4.73,6.17-8.53,7.22-.52.14-1.04.29-1.56.43h0c-6.12,1.7-11.92,3.32-17.69,2.4-3.87-.62-7.73-1.24-11.6-1.86-8.69-1.39-9.6-11.03-2.98-15.78.61-.44.82-.29.65.44-1.39,5.55.47,9.17,6.04,10.64.38.1.78.21,1.18.31h0c4.25,1.14,9.49,2.54,13.61,1.41,2.8-.77,6.65-1.93,11.58-3.48,4.61-1.45,4.81-7,3.04-10.63-.04-.08-.05-.17-.04-.25.01-.09.05-.17.12-.23.06-.06.14-.1.23-.12.09-.01.18,0,.25.04,3.54,1.69,6.24,5.5,5.7,9.46Z"/><path class="cls-5" d="M127.64,222.08c-10.53.55-17.59-2.91-28.04-7.46-3.99-1.74-7.03-4.31-12.12-4.04-2.17.11-4.51,3.21-4.31,7.03.2,3.82.84,5.06,1.72,8.42.81,3.1.34,3.27,1.18,6.32.85,3.05,3.4,1.91,2.97-.16-.43-2.06-1.69-7.93-1.94-12.66-.11-2.12,2.25-3.1,4.13-2.34,7.77,3.11,24.04,12.35,35.92,11.73,15.73-.82,20.3-2.34,31.84-9.32,3.84-2.32,8.68-4.04,9.87-6.47,2.13-4.37-1.23-7.17-4.55-5.72-1.96.85-6.47,4.98-11.5,7.83-7.44,4.22-14.98,6.32-25.16,6.85Z"/><path class="cls-5" d="M73.11,146.37c-3.15,1.42-6.05,3.22-8.71,5.4-.7.57-1.38,1.3-2.07,2.03-.66.7-1.33,1.42-2.02,2-.67.57-.9.43-.68-.43,2.48-9.88,10.38-17.71,20.92-18.2,9.79-.44,17.31,5.98,21.29,14.41.62,1.32.98,2.46,1.08,3.43.09.88-.2,1.04-.88.47l-8.78-7.37c-.67-.55-1.17-.43-1.49.38-3.51,8.69-16.13,7.64-18.14-1.87-.06-.3-.23-.39-.51-.27Z"/><path class="cls-5" d="M83.87,117.38c3.92,1,7.82,2.1,11.69,3.3,3.24,1.01,5.52,2.97,6.86,5.89.1,3.27-1.15,5.25-3.76,5.94-.64-.05-1.22-.15-1.75-.3-10.26-2.85-21.12-4.68-32.58-5.47-7.61-.53-14.62,3.72-19.23,9.23-.9,1.08-1.4.92-1.5-.48,0-.02.03-.34.09-.99,1.1-8.16,5.74-17.39,14.32-19.64,1.3-.34,3.54-.42,6.73-.24,6.46.36,12.84,1.29,19.12,2.76Z"/><path class="cls-5" d="M156.44,144.86c4.76,8.6,16.84,6.17,17.98-3.55.03-.27.18-.36.43-.26,5.37,1.93,10.12,4.71,14.26,8.34.2.17.4.3.6.38.04.02.09.02.14.01.05,0,.09-.03.13-.06.03-.03.06-.08.07-.12.01-.05.01-.1,0-.14-1.58-4.99-4.45-9.08-8.62-12.27-14.69-11.26-32.04-1.39-34.8,15.34-.02.13-.02.25.01.38.03.11.06.2.08.28.02.06.06.11.1.15.05.04.1.07.16.08.06.01.12,0,.18,0,.06-.02.11-.05.15-.09l8-8.58c.08-.08.17-.15.27-.18.11-.04.22-.05.33-.04.11.01.22.05.31.12.09.06.17.15.22.25Z"/><path class="cls-5" d="M202.68,128.8l-.02-1.78c-2.65-12.02-7.52-20.87-21.81-18.38-5.93,1.04-10.92,2.18-14.95,3.42-2.52.9-5.01,1.8-7.46,2.71l-.12.05-.11.04-.24.09h0c-4.79,1.77-16.77,6.2-12.68,13.01,1.43,2.37,4.3,2.15,6.75,1.13,4.94-2.04,10.83-3.93,17.66-5.69,7.71-1.99,12.72-3.09,15.04-3.3,7.09-.64,11.89,4.07,16.27,8.37l.38.37c.21.2.52.31.94.32.25,0,.37-.12.37-.37Z"/><path class="cls-1" d="M137.97,303.12l73.16-81.25"/><path class="cls-1" d="M123.24,303.04l90.04-100"/><path class="cls-1" d="M156.72,298.73l51.45-57.14"/><path class="cls-1" d="M110.93,300.28l102.1-113.39"/><path class="cls-1" d="M99.41,296.63l44.22-49.11"/><path class="cls-1" d="M177.48,292.11l24.92-27.68"/><path class="cls-1" d="M90.31,290.3l49.84-55.36"/><path class="cls-1" d="M81.21,283.97l41-45.54"/><path class="cls-1" d="M72.91,276.75l20.9-23.21"/><path class="cls-1" d="M65.42,268.64l22.51-25"/><path class="cls-1" d="M58.73,259.63l25.73-28.57"/><path class="cls-1" d="M52.84,249.73l45.82-50.89"/><path class="cls-1" d="M47.76,238.93l9.65-10.71"/><path class="cls-1" d="M44.29,226.36l5.63-6.25"/><path class="cls-1" d="M173.37,214.49l10.45-11.61"/><path class="cls-1" d="M68.66,215.72l16.08-17.86"/><path class="cls-1" d="M132.4,210.68l10.45-11.61"/><path class="cls-1" d="M117.67,210.6l8.84-9.82"/><path class="cls-1" d="M165.88,206.37l9.65-10.71"/><path class="cls-1" d="M41.62,212.88l3.22-3.57"/><path class="cls-1" d="M151.15,206.29l8.84-9.82"/><path class="cls-1" d="M104.55,208.73l8.04-8.93"/><path class="cls-1" d="M40.56,197.63l1.14-1.26"/><path class="cls-1" d="M38.69,183.26l.57-.63"/><path class="cls-1" d="M211.96,171.63l.57-.63"/></svg>