<svg width="1244" height="273" viewBox="0 0 1244 273" fill="none" xmlns="http://www.w3.org/2000/svg">
<path d="M0 4.65909H21.3068L58.3523 95.1136H59.7159L96.7614 4.65909H118.068V121.023H101.364V36.8182H100.284L65.9659 120.852H52.1023L17.7841 36.7614H16.7045V121.023H0V4.65909Z" fill="#2B1E1A"/>
<path d="M167.628 122.955C162.098 122.955 157.098 121.932 152.628 119.886C148.158 117.803 144.616 114.792 142.003 110.852C139.427 106.913 138.139 102.083 138.139 96.3636C138.139 91.4394 139.086 87.3864 140.98 84.2045C142.874 81.0227 145.431 78.5038 148.651 76.6477C151.87 74.7917 155.469 73.3902 159.446 72.4432C163.423 71.4962 167.476 70.7765 171.605 70.2841C176.832 69.678 181.075 69.1856 184.332 68.8068C187.59 68.3902 189.957 67.7273 191.435 66.8182C192.912 65.9091 193.651 64.4318 193.651 62.3864V61.9886C193.651 57.0265 192.249 53.1818 189.446 50.4545C186.681 47.7273 182.552 46.3636 177.06 46.3636C171.34 46.3636 166.832 47.6326 163.537 50.1705C160.279 52.6705 158.026 55.4545 156.776 58.5227L140.81 54.8864C142.704 49.5833 145.469 45.303 149.105 42.0455C152.779 38.75 157.003 36.3636 161.776 34.8864C166.548 33.3712 171.567 32.6136 176.832 32.6136C180.317 32.6136 184.01 33.0303 187.912 33.8636C191.851 34.6591 195.526 36.1364 198.935 38.2954C202.382 40.4545 205.204 43.5417 207.401 47.5568C209.598 51.5341 210.696 56.7045 210.696 63.0682V121.023H194.105V109.091H193.423C192.325 111.288 190.677 113.447 188.48 115.568C186.283 117.689 183.461 119.451 180.014 120.852C176.567 122.254 172.438 122.955 167.628 122.955ZM171.321 109.318C176.018 109.318 180.033 108.39 183.366 106.534C186.738 104.678 189.295 102.254 191.037 99.2614C192.817 96.2311 193.707 92.9924 193.707 89.5455V78.2955C193.101 78.9015 191.927 79.4697 190.185 80C188.48 80.4924 186.529 80.928 184.332 81.3068C182.135 81.6477 179.995 81.9697 177.912 82.2727C175.829 82.5379 174.086 82.7651 172.685 82.9545C169.389 83.3712 166.378 84.072 163.651 85.0568C160.961 86.0417 158.802 87.4621 157.173 89.3182C155.582 91.1364 154.787 93.5606 154.787 96.5909C154.787 100.795 156.34 103.977 159.446 106.136C162.552 108.258 166.51 109.318 171.321 109.318Z" fill="#2B1E1A"/>
<path d="M274.062 33.75V47.3864H226.392V33.75H274.062ZM239.176 12.8409H256.165V95.3977C256.165 98.6932 256.657 101.174 257.642 102.841C258.627 104.47 259.896 105.587 261.449 106.193C263.04 106.761 264.763 107.045 266.619 107.045C267.983 107.045 269.176 106.951 270.199 106.761C271.222 106.572 272.017 106.42 272.585 106.307L275.653 120.341C274.669 120.72 273.267 121.098 271.449 121.477C269.631 121.894 267.358 122.121 264.631 122.159C260.161 122.235 255.994 121.439 252.131 119.773C248.267 118.106 245.142 115.53 242.756 112.045C240.369 108.561 239.176 104.186 239.176 98.9205V12.8409Z" fill="#2B1E1A"/>
<path d="M333.594 33.75V47.3864H285.923V33.75H333.594ZM298.707 12.8409H315.696V95.3977C315.696 98.6932 316.188 101.174 317.173 102.841C318.158 104.47 319.427 105.587 320.98 106.193C322.571 106.761 324.295 107.045 326.151 107.045C327.514 107.045 328.707 106.951 329.73 106.761C330.753 106.572 331.548 106.42 332.116 106.307L335.185 120.341C334.2 120.72 332.798 121.098 330.98 121.477C329.162 121.894 326.889 122.121 324.162 122.159C319.692 122.235 315.526 121.439 311.662 119.773C307.798 118.106 304.673 115.53 302.287 112.045C299.901 108.561 298.707 104.186 298.707 98.9205V12.8409Z" fill="#2B1E1A"/>
<path d="M371.25 69.2045V121.023H354.261V4.65909H371.023V47.9545H372.102C374.148 43.2576 377.273 39.5265 381.477 36.7614C385.682 33.9962 391.174 32.6136 397.955 32.6136C403.939 32.6136 409.167 33.8447 413.636 36.3068C418.144 38.7689 421.629 42.4432 424.091 47.3295C426.591 52.178 427.841 58.2386 427.841 65.5114V121.023H410.852V67.5568C410.852 61.1553 409.205 56.1932 405.909 52.6705C402.614 49.1098 398.03 47.3295 392.159 47.3295C388.144 47.3295 384.545 48.1818 381.364 49.8864C378.22 51.5909 375.739 54.0909 373.92 57.3864C372.14 60.6439 371.25 64.5833 371.25 69.2045Z" fill="#2B1E1A"/>
<path d="M450.511 121.023V33.75H467.5V121.023H450.511ZM459.091 20.2841C456.136 20.2841 453.598 19.2992 451.477 17.3295C449.394 15.322 448.352 12.9356 448.352 10.1705C448.352 7.36742 449.394 4.98106 451.477 3.01136C453.598 1.00379 456.136 0 459.091 0C462.045 0 464.564 1.00379 466.648 3.01136C468.769 4.98106 469.83 7.36742 469.83 10.1705C469.83 12.9356 468.769 15.322 466.648 17.3295C464.564 19.2992 462.045 20.2841 459.091 20.2841Z" fill="#2B1E1A"/>
<path d="M515.753 122.955C510.223 122.955 505.223 121.932 500.753 119.886C496.283 117.803 492.741 114.792 490.128 110.852C487.552 106.913 486.264 102.083 486.264 96.3636C486.264 91.4394 487.211 87.3864 489.105 84.2045C490.999 81.0227 493.556 78.5038 496.776 76.6477C499.995 74.7917 503.594 73.3902 507.571 72.4432C511.548 71.4962 515.601 70.7765 519.73 70.2841C524.957 69.678 529.2 69.1856 532.457 68.8068C535.715 68.3902 538.082 67.7273 539.56 66.8182C541.037 65.9091 541.776 64.4318 541.776 62.3864V61.9886C541.776 57.0265 540.374 53.1818 537.571 50.4545C534.806 47.7273 530.677 46.3636 525.185 46.3636C519.465 46.3636 514.957 47.6326 511.662 50.1705C508.404 52.6705 506.151 55.4545 504.901 58.5227L488.935 54.8864C490.829 49.5833 493.594 45.303 497.23 42.0455C500.904 38.75 505.128 36.3636 509.901 34.8864C514.673 33.3712 519.692 32.6136 524.957 32.6136C528.442 32.6136 532.135 33.0303 536.037 33.8636C539.976 34.6591 543.651 36.1364 547.06 38.2954C550.507 40.4545 553.329 43.5417 555.526 47.5568C557.723 51.5341 558.821 56.7045 558.821 63.0682V121.023H542.23V109.091H541.548C540.45 111.288 538.802 113.447 536.605 115.568C534.408 117.689 531.586 119.451 528.139 120.852C524.692 122.254 520.563 122.955 515.753 122.955ZM519.446 109.318C524.143 109.318 528.158 108.39 531.491 106.534C534.863 104.678 537.42 102.254 539.162 99.2614C540.942 96.2311 541.832 92.9924 541.832 89.5455V78.2955C541.226 78.9015 540.052 79.4697 538.31 80C536.605 80.4924 534.654 80.928 532.457 81.3068C530.26 81.6477 528.12 81.9697 526.037 82.2727C523.954 82.5379 522.211 82.7651 520.81 82.9545C517.514 83.3712 514.503 84.072 511.776 85.0568C509.086 86.0417 506.927 87.4621 505.298 89.3182C503.707 91.1364 502.912 93.5606 502.912 96.5909C502.912 100.795 504.465 103.977 507.571 106.136C510.677 108.258 514.635 109.318 519.446 109.318Z" fill="#2B1E1A"/>
<path d="M646.847 55.0568L631.449 57.7841C630.805 55.8144 629.782 53.9394 628.381 52.1591C627.017 50.3788 625.161 48.9205 622.812 47.7841C620.464 46.6477 617.528 46.0795 614.006 46.0795C609.195 46.0795 605.18 47.1591 601.96 49.3182C598.741 51.4394 597.131 54.1856 597.131 57.5568C597.131 60.4735 598.21 62.822 600.369 64.6023C602.528 66.3826 606.013 67.8409 610.824 68.9773L624.688 72.1591C632.718 74.0152 638.703 76.875 642.642 80.7386C646.581 84.6023 648.551 89.6212 648.551 95.7955C648.551 101.023 647.036 105.682 644.006 109.773C641.013 113.826 636.828 117.008 631.449 119.318C626.108 121.629 619.915 122.784 612.869 122.784C603.097 122.784 595.123 120.701 588.949 116.534C582.775 112.33 578.987 106.364 577.585 98.6364L594.006 96.1364C595.028 100.417 597.131 103.655 600.312 105.852C603.494 108.011 607.642 109.091 612.756 109.091C618.324 109.091 622.775 107.936 626.108 105.625C629.441 103.277 631.108 100.417 631.108 97.0455C631.108 94.3182 630.085 92.0265 628.04 90.1705C626.032 88.3144 622.945 86.9129 618.778 85.9659L604.006 82.7273C595.862 80.8712 589.839 77.9167 585.938 73.8636C582.074 69.8106 580.142 64.678 580.142 58.4659C580.142 53.3144 581.581 48.8068 584.46 44.9432C587.339 41.0795 591.316 38.0682 596.392 35.9091C601.468 33.7121 607.282 32.6136 613.835 32.6136C623.267 32.6136 630.691 34.6591 636.108 38.75C641.525 42.803 645.104 48.2386 646.847 55.0568Z" fill="#2B1E1A"/>
<path d="M0 271.023V154.659H17.5568V205.227H75.5682V154.659H93.1818V271.023H75.5682V220.284H17.5568V271.023H0Z" fill="#2B1E1A"/>
<path d="M142.784 272.955C137.254 272.955 132.254 271.932 127.784 269.886C123.314 267.803 119.773 264.792 117.159 260.852C114.583 256.913 113.295 252.083 113.295 246.364C113.295 241.439 114.242 237.386 116.136 234.205C118.03 231.023 120.587 228.504 123.807 226.648C127.027 224.792 130.625 223.39 134.602 222.443C138.58 221.496 142.633 220.777 146.761 220.284C151.989 219.678 156.231 219.186 159.489 218.807C162.746 218.39 165.114 217.727 166.591 216.818C168.068 215.909 168.807 214.432 168.807 212.386V211.989C168.807 207.027 167.405 203.182 164.602 200.455C161.837 197.727 157.708 196.364 152.216 196.364C146.496 196.364 141.989 197.633 138.693 200.17C135.436 202.67 133.182 205.455 131.932 208.523L115.966 204.886C117.86 199.583 120.625 195.303 124.261 192.045C127.936 188.75 132.159 186.364 136.932 184.886C141.705 183.371 146.723 182.614 151.989 182.614C155.473 182.614 159.167 183.03 163.068 183.864C167.008 184.659 170.682 186.136 174.091 188.295C177.538 190.455 180.36 193.542 182.557 197.557C184.754 201.534 185.852 206.705 185.852 213.068V271.023H169.261V259.091H168.58C167.481 261.288 165.833 263.447 163.636 265.568C161.439 267.689 158.617 269.451 155.17 270.852C151.723 272.254 147.595 272.955 142.784 272.955ZM146.477 259.318C151.174 259.318 155.189 258.39 158.523 256.534C161.894 254.678 164.451 252.254 166.193 249.261C167.973 246.231 168.864 242.992 168.864 239.545V228.295C168.258 228.902 167.083 229.47 165.341 230C163.636 230.492 161.686 230.928 159.489 231.307C157.292 231.648 155.152 231.97 153.068 232.273C150.985 232.538 149.242 232.765 147.841 232.955C144.545 233.371 141.534 234.072 138.807 235.057C136.117 236.042 133.958 237.462 132.33 239.318C130.739 241.136 129.943 243.561 129.943 246.591C129.943 250.795 131.496 253.977 134.602 256.136C137.708 258.258 141.667 259.318 146.477 259.318Z" fill="#2B1E1A"/>
<path d="M208.48 271.023V183.75H224.787V197.955H225.866C227.685 193.144 230.658 189.394 234.787 186.705C238.916 183.977 243.859 182.614 249.616 182.614C255.45 182.614 260.336 183.977 264.276 186.705C268.253 189.432 271.188 193.182 273.082 197.955H273.991C276.075 193.295 279.389 189.583 283.935 186.818C288.48 184.015 293.897 182.614 300.185 182.614C308.101 182.614 314.56 185.095 319.56 190.057C324.598 195.019 327.116 202.5 327.116 212.5V271.023H310.128V214.091C310.128 208.182 308.518 203.902 305.298 201.25C302.079 198.598 298.234 197.273 293.764 197.273C288.234 197.273 283.935 198.977 280.866 202.386C277.798 205.758 276.264 210.095 276.264 215.398V271.023H259.332V213.011C259.332 208.277 257.855 204.47 254.901 201.591C251.946 198.712 248.101 197.273 243.366 197.273C240.147 197.273 237.173 198.125 234.446 199.83C231.757 201.496 229.579 203.826 227.912 206.818C226.283 209.811 225.469 213.277 225.469 217.216V271.023H208.48Z" fill="#2B1E1A"/>
<path d="M349.886 271.023V183.75H366.193V197.955H367.273C369.091 193.144 372.064 189.394 376.193 186.705C380.322 183.977 385.265 182.614 391.023 182.614C396.856 182.614 401.742 183.977 405.682 186.705C409.659 189.432 412.595 193.182 414.489 197.955H415.398C417.481 193.295 420.795 189.583 425.341 186.818C429.886 184.015 435.303 182.614 441.591 182.614C449.508 182.614 455.966 185.095 460.966 190.057C466.004 195.019 468.523 202.5 468.523 212.5V271.023H451.534V214.091C451.534 208.182 449.924 203.902 446.705 201.25C443.485 198.598 439.64 197.273 435.17 197.273C429.64 197.273 425.341 198.977 422.273 202.386C419.205 205.758 417.67 210.095 417.67 215.398V271.023H400.739V213.011C400.739 208.277 399.261 204.47 396.307 201.591C393.352 198.712 389.508 197.273 384.773 197.273C381.553 197.273 378.58 198.125 375.852 199.83C373.163 201.496 370.985 203.826 369.318 206.818C367.689 209.811 366.875 213.277 366.875 217.216V271.023H349.886Z" fill="#2B1E1A"/>
<path d="M528.906 272.784C520.308 272.784 512.902 270.947 506.69 267.273C500.516 263.561 495.743 258.352 492.372 251.648C489.039 244.905 487.372 237.008 487.372 227.955C487.372 219.015 489.039 211.136 492.372 204.318C495.743 197.5 500.44 192.178 506.463 188.352C512.524 184.527 519.607 182.614 527.713 182.614C532.637 182.614 537.41 183.428 542.031 185.057C546.652 186.686 550.8 189.242 554.474 192.727C558.149 196.212 561.046 200.739 563.168 206.307C565.289 211.837 566.349 218.561 566.349 226.477V232.5H496.974V219.773H549.702C549.702 215.303 548.793 211.345 546.974 207.898C545.156 204.413 542.599 201.667 539.304 199.659C536.046 197.652 532.221 196.648 527.827 196.648C523.054 196.648 518.887 197.822 515.327 200.17C511.804 202.481 509.077 205.511 507.145 209.261C505.251 212.973 504.304 217.008 504.304 221.364V231.307C504.304 237.14 505.327 242.102 507.372 246.193C509.455 250.284 512.353 253.409 516.065 255.568C519.777 257.689 524.115 258.75 529.077 258.75C532.296 258.75 535.232 258.295 537.884 257.386C540.535 256.439 542.827 255.038 544.759 253.182C546.69 251.326 548.168 249.034 549.19 246.307L565.27 249.205C563.982 253.939 561.671 258.087 558.338 261.648C555.043 265.17 550.895 267.917 545.895 269.886C540.933 271.818 535.27 272.784 528.906 272.784Z" fill="#2B1E1A"/>
<path d="M585.199 271.023V183.75H601.619V197.614H602.528C604.119 192.917 606.922 189.223 610.938 186.534C614.991 183.807 619.574 182.443 624.688 182.443C625.748 182.443 626.998 182.481 628.438 182.557C629.915 182.633 631.07 182.727 631.903 182.841V199.091C631.222 198.902 630.009 198.693 628.267 198.466C626.525 198.201 624.782 198.068 623.04 198.068C619.025 198.068 615.445 198.92 612.301 200.625C609.195 202.292 606.733 204.621 604.915 207.614C603.097 210.568 602.188 213.939 602.188 217.727V271.023H585.199Z" fill="#2B1E1A"/>
<path d="M712.003 205.057L696.605 207.784C695.961 205.814 694.938 203.939 693.537 202.159C692.173 200.379 690.317 198.92 687.969 197.784C685.62 196.648 682.685 196.08 679.162 196.08C674.351 196.08 670.336 197.159 667.116 199.318C663.897 201.439 662.287 204.186 662.287 207.557C662.287 210.473 663.366 212.822 665.526 214.602C667.685 216.383 671.169 217.841 675.98 218.977L689.844 222.159C697.874 224.015 703.859 226.875 707.798 230.739C711.738 234.602 713.707 239.621 713.707 245.795C713.707 251.023 712.192 255.682 709.162 259.773C706.17 263.826 701.984 267.008 696.605 269.318C691.264 271.629 685.071 272.784 678.026 272.784C668.253 272.784 660.279 270.701 654.105 266.534C647.931 262.33 644.143 256.364 642.741 248.636L659.162 246.136C660.185 250.417 662.287 253.655 665.469 255.852C668.651 258.011 672.798 259.091 677.912 259.091C683.48 259.091 687.931 257.936 691.264 255.625C694.598 253.277 696.264 250.417 696.264 247.045C696.264 244.318 695.241 242.027 693.196 240.17C691.188 238.314 688.101 236.913 683.935 235.966L669.162 232.727C661.018 230.871 654.995 227.917 651.094 223.864C647.23 219.811 645.298 214.678 645.298 208.466C645.298 203.314 646.738 198.807 649.616 194.943C652.495 191.08 656.473 188.068 661.548 185.909C666.624 183.712 672.438 182.614 678.991 182.614C688.423 182.614 695.848 184.659 701.264 188.75C706.681 192.803 710.26 198.239 712.003 205.057Z" fill="#2B1E1A"/>
<path d="M769.148 272.784C760.701 272.784 753.428 270.871 747.33 267.045C741.269 263.182 736.61 257.86 733.352 251.08C730.095 244.299 728.466 236.534 728.466 227.784C728.466 218.92 730.133 211.098 733.466 204.318C736.799 197.5 741.496 192.178 747.557 188.352C753.617 184.527 760.758 182.614 768.977 182.614C775.606 182.614 781.515 183.845 786.705 186.307C791.894 188.731 796.08 192.14 799.261 196.534C802.481 200.928 804.394 206.061 805 211.932H788.466C787.557 207.841 785.473 204.318 782.216 201.364C778.996 198.409 774.678 196.932 769.261 196.932C764.527 196.932 760.379 198.182 756.818 200.682C753.295 203.144 750.549 206.667 748.58 211.25C746.61 215.795 745.625 221.174 745.625 227.386C745.625 233.75 746.591 239.242 748.523 243.864C750.455 248.485 753.182 252.064 756.705 254.602C760.265 257.14 764.451 258.409 769.261 258.409C772.481 258.409 775.398 257.822 778.011 256.648C780.663 255.436 782.879 253.712 784.659 251.477C786.477 249.242 787.746 246.553 788.466 243.409H805C804.394 249.053 802.557 254.091 799.489 258.523C796.42 262.955 792.311 266.439 787.159 268.977C782.045 271.515 776.042 272.784 769.148 272.784Z" fill="#2B1E1A"/>
<path d="M840.156 219.205V271.023H823.168V154.659H839.929V197.955H841.009C843.054 193.258 846.179 189.527 850.384 186.761C854.588 183.996 860.08 182.614 866.861 182.614C872.846 182.614 878.073 183.845 882.543 186.307C887.05 188.769 890.535 192.443 892.997 197.33C895.497 202.178 896.747 208.239 896.747 215.511V271.023H879.759V217.557C879.759 211.155 878.111 206.193 874.815 202.67C871.52 199.11 866.937 197.33 861.065 197.33C857.05 197.33 853.452 198.182 850.27 199.886C847.126 201.591 844.645 204.091 842.827 207.386C841.046 210.644 840.156 214.583 840.156 219.205Z" fill="#2B1E1A"/>
<path d="M919.418 271.023V183.75H935.724V197.955H936.804C938.622 193.144 941.596 189.394 945.724 186.705C949.853 183.977 954.796 182.614 960.554 182.614C966.387 182.614 971.274 183.977 975.213 186.705C979.19 189.432 982.126 193.182 984.02 197.955H984.929C987.012 193.295 990.327 189.583 994.872 186.818C999.418 184.015 1004.83 182.614 1011.12 182.614C1019.04 182.614 1025.5 185.095 1030.5 190.057C1035.54 195.019 1038.05 202.5 1038.05 212.5V271.023H1021.07V214.091C1021.07 208.182 1019.46 203.902 1016.24 201.25C1013.02 198.598 1009.17 197.273 1004.7 197.273C999.171 197.273 994.872 198.977 991.804 202.386C988.736 205.758 987.202 210.095 987.202 215.398V271.023H970.27V213.011C970.27 208.277 968.793 204.47 965.838 201.591C962.884 198.712 959.039 197.273 954.304 197.273C951.084 197.273 948.111 198.125 945.384 199.83C942.694 201.496 940.516 203.826 938.849 206.818C937.221 209.811 936.406 213.277 936.406 217.216V271.023H919.418Z" fill="#2B1E1A"/>
<path d="M1060.82 271.023V183.75H1077.81V271.023H1060.82ZM1069.4 170.284C1066.45 170.284 1063.91 169.299 1061.79 167.33C1059.71 165.322 1058.66 162.936 1058.66 160.17C1058.66 157.367 1059.71 154.981 1061.79 153.011C1063.91 151.004 1066.45 150 1069.4 150C1072.36 150 1074.88 151.004 1076.96 153.011C1079.08 154.981 1080.14 157.367 1080.14 160.17C1080.14 162.936 1079.08 165.322 1076.96 167.33C1074.88 169.299 1072.36 170.284 1069.4 170.284Z" fill="#2B1E1A"/>
<path d="M1133.34 272.727C1126.29 272.727 1120 270.928 1114.47 267.33C1108.98 263.693 1104.66 258.523 1101.52 251.818C1098.41 245.076 1096.86 236.989 1096.86 227.557C1096.86 218.125 1098.43 210.057 1101.58 203.352C1104.76 196.648 1109.11 191.515 1114.64 187.955C1120.18 184.394 1126.44 182.614 1133.45 182.614C1138.87 182.614 1143.22 183.523 1146.52 185.341C1149.85 187.121 1152.43 189.205 1154.25 191.591C1156.1 193.977 1157.54 196.08 1158.57 197.898H1159.59V154.659H1176.58V271.023H1159.99V257.443H1158.57C1157.54 259.299 1156.07 261.42 1154.13 263.807C1152.24 266.193 1149.63 268.277 1146.29 270.057C1142.96 271.837 1138.64 272.727 1133.34 272.727ZM1137.09 258.239C1141.97 258.239 1146.1 256.951 1149.47 254.375C1152.88 251.761 1155.46 248.144 1157.2 243.523C1158.98 238.902 1159.87 233.523 1159.87 227.386C1159.87 221.326 1159 216.023 1157.26 211.477C1155.52 206.932 1152.96 203.39 1149.59 200.852C1146.22 198.314 1142.05 197.045 1137.09 197.045C1131.97 197.045 1127.71 198.371 1124.3 201.023C1120.89 203.674 1118.32 207.292 1116.58 211.875C1114.87 216.458 1114.02 221.629 1114.02 227.386C1114.02 233.22 1114.89 238.466 1116.63 243.125C1118.38 247.784 1120.95 251.477 1124.36 254.205C1127.81 256.894 1132.05 258.239 1137.09 258.239Z" fill="#2B1E1A"/>
<path d="M1241.56 183.75V197.386H1193.89V183.75H1241.56ZM1206.68 162.841H1223.66V245.398C1223.66 248.693 1224.16 251.174 1225.14 252.841C1226.13 254.47 1227.4 255.587 1228.95 256.193C1230.54 256.761 1232.26 257.045 1234.12 257.045C1235.48 257.045 1236.68 256.951 1237.7 256.761C1238.72 256.572 1239.52 256.42 1240.09 256.307L1243.15 270.341C1242.17 270.72 1240.77 271.098 1238.95 271.477C1237.13 271.894 1234.86 272.121 1232.13 272.159C1227.66 272.235 1223.49 271.439 1219.63 269.773C1215.77 268.106 1212.64 265.53 1210.26 262.045C1207.87 258.561 1206.68 254.186 1206.68 248.92V162.841Z" fill="#2B1E1A"/>
<path d="M729.559 121.023V135.455H655.639V121.023H729.559Z" fill="#F6501A"/>
</svg>
