<svg xmlns="http://www.w3.org/2000/svg" width="343" height="392" fill="none" viewBox="0 0 343 392">
  <path fill="#fff" d="M43.039 141.351c-.187-4.297.619-9.044 1.95-12.917l6.822-17.271.025-.056.156-.358a388.145 388.145 0 0 0 2.527-5.962c1.553-3.751 3.51-8.639 5.07-13.075 3.04-8.64 9.392-20.372 13.258-27.077 1.634-2.833 5.032-7.546 9.256-12.283 4.243-4.758 9.051-9.232 13.44-11.835 16.98-10.066 33.256-16.353 62.468-19.078 14.876-1.388 26.114-1.254 37.36.698 11.286 1.96 22.769 5.782 38.132 11.996 17.149 6.935 28.817 15.613 37.182 31.636 4.279 8.197 6.564 15.322 9.876 25.654.475 1.483.972 3.032 1.499 4.66 2.456 7.591 8.391 21.589 11.264 28.302.794 1.922 1.075 4.551.687 7.192-.393 2.671-1.392 4.848-2.616 6.111 0 0-.054.051-.2.151a7.886 7.886 0 0 1-.659.387c-.412.221-.706.363-1.051.529a51.64 51.64 0 0 0-1.155.573c-.811.415-1.873.999-2.805 1.802-.963.828-2.032 2.1-2.407 3.926-.434 2.116.09 4.289 1.435 5.899 1.383 1.656 3.604 2.639 6.046 2.196 6.739-1.222 12.358-.103 17.521 4.332 1.916 1.906 3.245 4.737 4.193 8.331.883 3.344 1.34 6.939 1.795 10.514l.005.044.112.877c1.149 10.215 1.162 24.894-2.418 37.349-3.589 12.485-10.391 21.656-22.25 23.368-.738.106-2.022.31-3.161.968a5.281 5.281 0 0 0-1.878 1.807 5.29 5.29 0 0 0-.77 2.603c-.266 7.482-1.306 14.488-2.578 21.603a772.45 772.45 0 0 1-1.22 6.589v.002c-.941 5.001-1.911 10.157-2.685 15.477-.493 3.379-1.955 9.686-3.599 15.783-.815 3.02-1.657 5.926-2.421 8.32-.792 2.482-1.423 4.165-1.798 4.907-10.181 20.144-22.028 34.617-35.988 44.558-13.945 9.93-30.243 15.512-49.61 17.5-17.471 1.794-35.977-2.759-59.372-17.677-1.223-.779-4.989-4.013-9.469-8.198-4.363-4.076-8.991-8.664-11.827-11.876l-.37-.418c-9.9-11.207-14.219-16.11-19.648-28.562-4.943-11.338-8.81-28.429-9.526-33.495-.074-.522-.153-1.108-.24-1.745-.473-3.515-1.155-8.576-2.316-12.867-.678-2.506-1.621-5.165-3.037-7.2-1.448-2.081-4.035-4.304-7.738-3.642-3.632.648-7.114-.214-10.104-1.802-3.036-1.612-5.295-3.836-6.372-5.435-6.434-9.552-8.912-16.864-12.171-31.986-1.308-6.064-2.822-14.34-3.074-22.438-.257-8.257.835-15.542 4.019-20.222 1.888-2.776 3.935-4.626 6.142-5.762 2.14-1.102 4.65-1.645 7.7-1.502l.038.008.052.01a7.56 7.56 0 0 0 1.288.151c.522.012 1.479-.028 2.483-.532a4.718 4.718 0 0 0 2.438-2.988c.653-2.365-.674-4.202-1.164-4.823-.654-.829-1.484-1.545-2.143-2.073-.633-.506-1.312-.998-1.856-1.393l-.144-.104c-.65-.471-.99-.728-1.155-.876-1.841-1.656-3.05-4.835-3.244-9.285Z"/>
  <path fill="#fff" d="m46.282 163.222.011.002-.01-.002Z"/>
  <path fill="#F6501A" d="M154.54 23.803c33.704-3.371 59.284 2.21 89.96 16.141 14.053 6.39 26.783 21.451 28.926 36.036.947 6.478 6.612 17.453 7.706 23.96 1.659 9.867 7.5 14.788 7.5 24.083 3.08 6.711-2.51 17.73-9.334 16.238-2.244-.493-11.603-.358-13.597-1.504-5.907-3.372-16.015-8.134-22.114-11.145-54.855-27.053-99.606-17.405-153.106 11.529-5.144 3.225-15.042 4.926-20.094 8.297-3.749 2.5-15.88 2.709-20.255 1.062-5.266-1.991-5.335-9.16-3-15 3.932-9.859 8.114-15.285 8.5-25 .098-2.392 6.677-7.572 6.398-15.433-.266-7.499 5.346-15.872 7.81-22.94 3.784-10.842 11.372-17.748 20.819-23.121 22.885-13.01 37.605-20.575 63.881-23.203Z"/>
  <path fill="#DFDBD0" fill-opacity=".7" d="M274.193 167.065c-1.073 7.065-11.617 7.618-11.983.628-1.07-20.419-17.939-21.536-31.636-22.443-5.489-.364-10.468-.694-13.717-2.219-42.098-16.629-59.27-15.228-94.019 5.094-7.235 4.499-13.908 4.818-20.12 5.116-3.627.173-7.097.339-10.428 1.326-8.681 2.569-11.023 8.925-14.153 17.416a278.97 278.97 0 0 1-1.278 3.421c-2.544 6.643-10.583 5.961-13.98.733-3.398-5.229-1.231-13.955 3.026-18.684 5.229-5.808 14.22-11.266 22.782-16.464 2.284-1.387 4.538-2.755 6.682-4.106 40.712-25.666 87.467-41.135 157.072-2.725 12.96 7.152 24.358 15.747 21.752 32.907Zm6.673 12.669c-.21-3.998 1.779-11.796 4.707-15.268 3.569-4.221 8.44-4.956 14.375-2.756 5.382 1.994 7.738 13.718 8.011 19.107.649 13.248-.352 50.588-19.483 48.587-5.147-.539-5.067-11.182-5.023-17.001.009-1.146.016-2.105-.019-2.763-.165-3.152-.762-9.508-1.343-15.689-.55-5.852-1.086-11.546-1.225-14.217Z" style="mix-blend-mode:multiply"/>
  <path fill="#2B1E1A" d="M226.715 79.681c1.93.842 3.666 1.74 5.209 2.692 1.45.897 1.34 1.163-.33.797-16.608-3.675-33.821-6.14-51.639-7.394-1.8-.126-2.907-.259-3.839-.37-1.567-.188-2.638-.316-5.675-.255-.312.005-1.909-.588-1.077-.823 20.061-6.12 38.35-2.908 57.351 5.353Zm6.062 18.957c-43.843-23.142-83.812-18.64-125.155 4.556-1.182.664-3.229 1.761-5.229 2.834-2.028 1.088-4.01 2.15-4.995 2.709-.972.552.133 1.292 1.05.946 2.457-.925 4.76-1.816 6.965-2.669 6.06-2.346 11.383-4.405 17.11-6.103 28.708-8.508 42.993-10.82 69.668-8.157 12.941 1.292 26.387 5.07 39.281 8.693 2.298.646 4.58 1.287 6.837 1.908 2.54.699 2.497-.131.421-1.524-.693-.465-2.906-1.611-4.558-2.467-.555-.287-1.046-.54-1.395-.726Zm-31.631 138.211c-.661 4.858-5.567 7.264-10.035 8.504l-1.841.511c-7.2 2.005-14.03 3.907-20.822 2.826l-13.651-2.186c-10.231-1.64-11.297-12.99-3.512-18.575.717-.515.97-.344.761.514-1.634 6.531.548 10.796 7.112 12.519l1.388.369.004.001c5.003 1.338 11.165 2.986 16.022 1.655 3.289-.904 7.832-2.269 13.629-4.096 5.432-1.708 5.661-8.239 3.578-12.518a.487.487 0 0 1 .356-.705.49.49 0 0 1 .299.045c4.165 1.985 7.347 6.47 6.712 11.136Zm-100.724-41.685a45.827 45.827 0 0 1 10.248-6.357c.331-.145.532-.041.605.312 2.373 11.191 17.225 12.425 21.358 2.199.379-.95.964-1.099 1.754-.445l10.336 8.67c.803.671 1.15.486 1.041-.554-.12-1.142-.544-2.489-1.272-4.04-4.681-9.918-13.537-17.478-25.06-16.956-12.409.569-21.709 9.788-24.626 21.418-.255 1.011.014 1.178.806.502.816-.691 1.601-1.528 2.379-2.358.81-.864 1.61-1.719 2.431-2.391Zm22.911-40.485a280.247 280.247 0 0 1 13.758 3.885c3.809 1.184 6.499 3.494 8.069 6.929.117 3.851-1.359 6.182-4.429 6.996a11.118 11.118 0 0 1-2.059-.354c-12.077-3.357-24.858-5.503-38.344-6.441-8.953-.618-17.205 4.374-22.63 10.869-1.064 1.271-1.652 1.081-1.762-.569-.001-.018.036-.407.11-1.167 1.292-9.605 6.752-20.472 16.859-23.114 1.532-.401 4.171-.497 7.918-.288a130.148 130.148 0 0 1 22.51 3.254Zm106.586 28.167c-1.35 11.44-15.57 14.307-21.169 4.183a.834.834 0 0 0-.623-.427.817.817 0 0 0-.386.045.815.815 0 0 0-.323.216l-9.417 10.104a.397.397 0 0 1-.38.121.429.429 0 0 1-.307-.266c-.029-.09-.062-.2-.099-.331a1 1 0 0 1-.014-.443c3.247-19.69 23.663-31.313 40.958-18.058 4.912 3.756 8.295 8.571 10.15 14.446a.316.316 0 0 1-.085.315.3.3 0 0 1-.148.076.297.297 0 0 1-.164-.017 2.758 2.758 0 0 1-.704-.453c-4.866-4.272-10.459-7.545-16.78-9.819-.302-.111-.472-.008-.509.308Zm33.263-14.717-.028-2.093c-3.117-14.144-8.849-24.569-25.676-21.629-6.984 1.224-12.849 2.565-17.596 4.023a718.878 718.878 0 0 0-8.781 3.189l-.562.208c-5.637 2.086-19.734 7.302-14.926 15.319 1.679 2.795 5.065 2.527 7.949 1.333 5.816-2.396 12.743-4.63 20.782-6.701 9.071-2.343 14.972-3.638 17.703-3.884 8.35-.755 13.998 4.791 19.152 9.852l.445.436c.242.235.611.361 1.107.377.29.003.434-.14.431-.43Zm-35.979 99.515a1.998 1.998 0 1 0 2.972 2.676l12.302-13.662a2 2 0 0 0-2.973-2.677l-12.301 13.663Zm-123.105 4.277a2 2 0 0 1-.148-2.825l18.926-21.019a2 2 0 0 1 2.973 2.676l-18.926 21.02a2 2 0 0 1-2.825.148Zm74.878-8.759a2 2 0 0 0 2.973 2.676l12.302-13.662a2 2 0 0 0-2.973-2.677l-12.302 13.663Zm-17.189 2.731a2 2 0 0 1-.148-2.824l10.41-11.561a2 2 0 1 1 2.972 2.677l-10.409 11.56a2 2 0 0 1-2.825.148Zm39.258-7.894a2 2 0 0 0 2.973 2.677l10.409-11.561a2 2 0 1 0-2.973-2.676l-10.409 11.56Zm-54.702 5.7a2 2 0 0 1-.148-2.825l9.463-10.51a2 2 0 0 1 2.972 2.677l-9.463 10.51a2 2 0 0 1-2.824.148Z"/>
  <path fill="#2B1E1A" fill-rule="evenodd" d="M274.295 63.918c-8.921-17.087-21.462-26.308-39.227-33.493-30.907-12.5-47.165-15.787-77.364-12.97-29.787 2.78-46.635 9.247-64.136 19.621-9.812 5.818-20.51 19.298-24.121 25.56-3.87 6.713-10.393 18.727-13.566 27.748-3.05 8.672-7.699 19.241-7.699 19.241l-6.88 17.421c-2.987 8.613-3.656 21.144 2.37 26.564.381.342.969.768 1.617 1.238 1.763 1.278 3.973 2.879 3.665 3.993-.219.794-1.208.587-1.725.479-.11-.023-.2-.042-.255-.045-7.533-.436-13.245 2.575-17.613 8.995-7.848 11.536-4.195 33.47-1.548 45.753 3.308 15.348 5.923 23.222 12.764 33.378 2.932 4.352 11.072 10.623 20.496 8.939 5.547-.99 7.37 12.507 8.415 20.237l.002.01c.088.656.171 1.27.25 1.83.754 5.328 4.7 22.785 9.821 34.534 5.692 13.055 10.367 18.347 20.317 29.611l.369.418c5.925 6.709 18.947 18.761 22.144 20.799 23.925 15.255 43.325 20.194 61.931 18.283 39.84-4.09 67.964-23.088 88.76-64.233 2.146-4.245 7.147-22.982 8.206-30.236.761-5.238 1.705-10.255 2.639-15.217 1.78-9.457 3.521-18.71 3.883-28.89.037-1.033.904-1.348 2.383-1.561 28.265-4.08 30.44-44.126 28.068-65.154l-.125-.983c-.938-7.385-2.058-16.203-7.239-21.248-6.25-5.421-13.18-6.733-20.948-5.325-1.835.333-3.247-1.412-2.848-3.355.333-1.621 2.23-2.547 4.09-3.455 1.208-.589 2.401-1.171 3.138-1.931 3.958-4.08 5.004-12.213 2.745-17.643-2.897-6.771-8.754-20.595-11.144-27.98-.515-1.59-1.002-3.111-1.471-4.575l-.017-.054-.004-.011c-3.302-10.307-5.695-17.773-10.143-26.293ZM158.463 31.936c28.959-1.518 41.493-1.212 73.184 13.199 14.052 6.39 25.593 18.174 29.352 25.501 2.748 5.355 5.192 12.146 7.578 18.775 1.38 3.832 2.74 7.61 4.127 11.025 0 0 6.788 14.938 9.367 24.496 1.775 6.578-4.002 10.989-9.157 11.259-2.834.149-8.566-1.656-13.561-3.898-3.375-1.514-7.049-3.742-10.68-5.944-3.045-1.847-6.061-3.676-8.843-5.049-54.855-27.053-101.733-19.794-153.208 12.451a643.492 643.492 0 0 0-15.293 9.895c-3.75 2.5-9.089 5.361-13.464 3.713-4.374-1.647-6.26-7.864-4.557-13.28 2.88-9.163 7.377-18.912 7.377-18.912s6.607-15.635 8.106-19.951c2.053-5.916 6.58-15.083 10.693-22.59 5.511-10.062 16.01-19.341 22.29-23.7 10.293-7.143 31.223-15.655 56.689-16.99ZM69.382 173.377l-.69-10.562a.953.953 0 0 1 .764-.983c4.749-.845 6.489-2.27 9.497-4.732l.001-.001.001-.001a90.88 90.88 0 0 1 3.444-2.717c55.236-41.119 110.56-48.559 168.49-11.63 3.103 1.98 10.3 5.468 13.374 6.809l.039.017c.678.294 4.205 1.824 4.217 4.767.067 16.121 1.336 31.223 2.622 46.546v.006c.458 5.453.919 10.933 1.328 16.498a2.001 2.001 0 0 0 .18 2.507c.242 3.439.461 6.912.646 10.434.093 1.783.145 3.544.162 5.286l-116.972 129.91a78.124 78.124 0 0 1-9.419-2.909l48.096-53.416a2 2 0 0 0-2.972-2.677l-49.053 54.478a79.498 79.498 0 0 1-8.222-4.237l56.158-62.37a2 2 0 0 0-2.972-2.677l-56.63 62.894a86.766 86.766 0 0 1-7.232-5.338l45.712-50.768a2 2 0 0 0-2.973-2.677l-45.776 50.84a99.288 99.288 0 0 1-6.388-6.275l21.713-24.115a2 2 0 1 0-2.973-2.676l-21.426 23.796a116.918 116.918 0 0 1-5.653-7.092l23.124-25.681a2 2 0 0 0-2.973-2.677l-22.527 25.02a138.89 138.89 0 0 1-4.998-7.82l26.409-29.329c.106-.117.195-.244.268-.376.044.172.093.353.146.544.996 3.589 3.996 2.247 3.495-.183l-.1-.481c-.575-2.767-1.909-9.188-2.183-14.42-.131-2.497 2.65-3.644 4.862-2.758 2.005.803 4.492 1.952 7.299 3.25 9.997 4.623 24.066 11.128 34.981 10.556 18.511-.97 23.889-2.754 37.477-10.977 1.362-.824 2.832-1.583 4.259-2.321 3.305-1.707 6.38-3.297 7.358-5.297 1.692-3.459.452-6.083-1.733-6.909l11.071-12.296a2 2 0 1 0-2.972-2.676l-11.356 12.611a2.002 2.002 0 0 0-.171 2.459 5.524 5.524 0 0 0-.198.082c-1.038.453-2.685 1.686-4.723 3.212-2.488 1.864-5.558 4.163-8.813 6.009-8.752 4.965-17.635 7.433-29.619 8.061-11.586.608-19.603-2.908-30.641-7.75l-.011-.004-.002-.001c-.768-.337-1.551-.68-2.351-1.029-1.189-.519-2.307-1.101-3.41-1.674-2.4-1.249-4.732-2.462-7.586-2.918l11.383-12.642a2 2 0 0 0-2.973-2.676l-48.505 53.87a110.659 110.659 0 0 1-3.696-9.265l6.609-7.34a2 2 0 1 0-2.973-2.676l-5.055 5.614c-1.072-3.591-1.9-7.057-2.593-10.489l1.8-2a2 2 0 0 0-2.716-2.916c-.518-3.008-.973-6.024-1.44-9.111-.975-6.466-1.997-13.246-3.75-20.915-5.5-24.086-8.083-43.637-7.566-70.616Zm23.22 133.648 29.98-33.296c.217 2.708.661 4.253 1.256 6.322.213.742.446 1.551.694 2.505.465 1.785.57 2.745.672 3.678.025.231.05.46.081.7a2 2 0 0 0-2.747.214l-25.534 28.359a165.088 165.088 0 0 1-4.401-8.482Zm68.406 59.46 112.368-124.797c-.176 5.021-.608 9.889-1.151 14.648l-100.3 111.394a84.723 84.723 0 0 1-10.917-1.245Zm16.201 1.355 94.152-104.567c-.221 1.669-.448 3.327-.673 4.975l-.001.009v.002l-.001.001v.003l-.001.006v.001c-.491 3.591-.976 7.139-1.387 10.665l-79.257 88.024c-2.082.252-4.239.461-6.478.623a98.01 98.01 0 0 1-6.354.258Zm44.156-10.345c7.754-4.203 14.517-9.595 21.411-16.047 6.344-5.937 12.101-15.634 16.632-26.204l-38.043 42.251Zm-9.173 4.21c-4.811 1.833-10.059 3.283-15.936 4.329l72.066-80.038c-1.034 5.844-2.726 12.337-4.936 18.852l-51.194 56.857Zm-159.31-137.48c1.217 1.381 2.698.973 1.944-1.103-.279-.771-.587-1.575-.905-2.404-1.98-5.163-4.322-11.27-2.06-15.966.599-1.252 2.257-1.662 3.499-.675 1.28 1.008 2.027 2.35 2.115 4.032.255 4.859 1.078 8.489 1.844 11.864.863 3.808 1.653 7.291 1.47 11.849l-.02.557c-.164 4.402-.313 8.412-7.576 7.351-5.507-.804-7.697-7.499-9.527-13.095-.27-.827-.533-1.629-.797-2.386-4.123-11.8-5.25-20.293-6.24-34.228-.442-6.35-.706-13.474 6.153-16.336 4.086-1.706 7.44-1.135 11.086 1.922 3.342 2.803 3.388 9.966 3.422 15.22.009 1.459.017 2.771.095 3.801.098 1.222-.871 2.24-1.502.901-1.171-2.49-3.517-5.975-5.832-6.203-4.093-.412-5.05 5.925-5.022 9.275.089 10.099 1.237 18.198 7.852 25.624Zm238.172-12.482c-.538 1.56 1.629 2.418 2.203.583.339-1.083.684-2.15 1.026-3.204 2.432-7.507 4.666-14.402 2.799-22.419-1.766-7.578-7.278-13.109-12.022-2.598-.406.904-.65.863-.732-.124-.327-3.991.227-12.663 1.986-15.735 2.254-3.938 4.272-5.285 10.103-5.082 5.735.2 8.667 10.396 8.941 15.786.649 13.248.999 47.558-15.791 48.438-2.233.117-2.713-2.204-2.926-3.431-.603-3.476-.652-5.983-.705-8.708l-.001-.016c-.032-1.675-.067-3.433-.233-5.549-.159-1.993-.445-3.916-.723-5.777v-.001c-.4-2.684-.78-5.237-.73-7.682.051-2.493 1.713-4.332 4.683-4.488 6.275-.329 2.992 17.513 2.122 20.007Z" clip-rule="evenodd"/>
</svg>
